<svg xmlns="http://www.w3.org/2000/svg" data-name="Layer 1" viewBox="0 0 100 125" x="0px" y="0px"><title>Artboard 58</title><path d="M96,9.66,88.6,85.9a5,5,0,0,1-6.85,4.22L57.32,80.67,43.62,93.51a4.84,4.84,0,0,1-3.35,1.35,4.94,4.94,0,0,1-5-4.95V80.83l33-41.24a2.14,2.14,0,0,0-1.67-3.48,2.09,2.09,0,0,0-1.37.53L27.18,69,7.13,61.24a4.89,4.89,0,0,1-.57-8.86L89.88,5.68a4.1,4.1,0,0,1,6.1,4Z"/><text x="0" y="115" fill="#000000" font-size="5px" font-weight="bold" font-family="'Helvetica Neue', Helvetica, Arial-Unicode, Arial, Sans-serif">Created by Gregor Cresnar</text><text x="0" y="120" fill="#000000" font-size="5px" font-weight="bold" font-family="'Helvetica Neue', Helvetica, Arial-Unicode, Arial, Sans-serif">from the Noun Project</text></svg>